<svg xmlns="http://www.w3.org/2000/svg" width="24" height="24" viewBox="0 0 24 24">
    <path data-name="사각형 472836" style="fill:none" d="M0 0h24v24H0z"/>
    <path data-name="패스 1072" d="M11.547 10.434h.907v3.847l1.47-1.47.641.641L12 16.017l-2.565-2.565.641-.641 1.47 1.47z"/>
    <path data-name="패스 1073" d="M15.664 16.459H8.337v.907h7.327z"/>
    <path data-name="패스 1203" d="M5 4a2 2 0 0 1 2-2h10a2 2 0 0 1 2 2v16a2 2 0 0 1-2 2H7a2 2 0 0 1-2-2zm2 0h10v16H7z" transform="translate(0 -.5)" style="fill-rule:evenodd"/>
</svg>
