<?xml version="1.0" encoding="UTF-8"?>
<svg id="_레이어_1" data-name="레이어 1" xmlns="http://www.w3.org/2000/svg" version="1.1" viewBox="0 0 38 38">
  <defs>
    <style>
      .cls-1 {
        fill: none;
      }

      .cls-1, .cls-2 {
        stroke-width: 0px;
      }

      .cls-2 {
        fill: #fff;
      }
    </style>
  </defs>
  <rect class="cls-1" width="38" height="38"/>
  <path class="cls-2" d="M29,20.1c0-2.9,1.6-5.6,4-7.1-1.6-2.2-4.1-3.6-6.8-3.7-2.9-.3-5.7,1.7-7.1,1.7s-3.7-1.7-6.2-1.6c-3.2.1-6.1,1.9-7.7,4.7-3.3,5.7-.8,14.2,2.3,18.8,1.6,2.3,3.4,4.8,5.9,4.7,2.4-.1,3.3-1.5,6.1-1.5s3.7,1.5,6.1,1.5c2.5,0,4.2-2.3,5.7-4.6,1.1-1.6,2-3.4,2.6-5.3-3-1.3-5-4.2-5-7.5M24.3,6.3c1.4-1.7,2.1-3.8,1.9-6-2.1.2-4.1,1.2-5.5,2.8-1.4,1.6-2.1,3.7-2,5.8,2.2,0,4.2-.9,5.5-2.6"/>
</svg>