<svg xmlns="http://www.w3.org/2000/svg" width="24" height="24" viewBox="0 0 24 24">
    <path data-name="사각형 472838" style="fill:none" d="M0 0h24v24H0z"/>
    <path data-name="패스 1519585" d="M11.85 9.876a3.056 3.056 0 0 0-2.223.958L6 8.883a3.062 3.062 0 0 0-.187-2.232l3.5-1.871a3.051 3.051 0 1 0-.491-1.24L4.965 5.6a3.064 3.064 0 1 0 .388 4.436l3.59 1.934a3.064 3.064 0 1 0 2.907-2.094m0-8.547a1.74 1.74 0 1 1-1.74 1.74 1.741 1.741 0 0 1 1.74-1.74M3.064 9.744A1.74 1.74 0 1 1 4.8 8a1.741 1.741 0 0 1-1.74 1.74m8.786 4.936a1.74 1.74 0 1 1 1.74-1.74 1.741 1.741 0 0 1-1.74 1.74" transform="translate(4.543 3.996)" style="fill:#fff"/>
</svg>
