<svg xmlns="http://www.w3.org/2000/svg" width="24" height="24" viewBox="0 0 24 24">
    <path data-name="사각형 473015" style="fill:none" d="M0 0h24v24H0z"/>
    <g data-name="그룹 655425">
        <path data-name="패스 1519561" d="M8.24 0C3.689 0 0 3.412 0 7.622a6.666 6.666 0 0 0 3.086 5.946h.008v3.652a.21.21 0 0 0 .335.168l3.124-2.321.068.029a8.93 8.93 0 0 0 1.62.148c4.551 0 8.24-3.413 8.24-7.622S12.791 0 8.24 0M5.478 9.553a1.721 1.721 0 0 0 1.707-1.23h1.194a2.858 2.858 0 0 1-2.9 2.379 3.03 3.03 0 0 1-3.1-3.089 3.03 3.03 0 0 1 3.1-3.089 2.862 2.862 0 0 1 2.91 2.424H7.2a1.7 1.7 0 0 0-1.722-1.291 1.865 1.865 0 0 0-1.939 1.956 1.913 1.913 0 0 0 1.939 1.94m7.872 1.031h-1.094v-2.47a.786.786 0 0 0-.84-.874c-.569 0-.933.348-.933 1.052v2.292h-1.1V4.543h1.1v2.272a1.4 1.4 0 0 1 1.264-.594 1.5 1.5 0 0 1 1.146.467 1.762 1.762 0 0 1 .459 1.29z" transform="translate(3.76 3.285)" style="fill:#fff"/>
    </g>
</svg>
