<svg xmlns="http://www.w3.org/2000/svg" width="24" height="24" viewBox="0 0 24 24">
    <defs>
        <clipPath id="yj5cyh5via">
            <path data-name="사각형 473012" style="fill:#fff" d="M0 0h17.523v16.253H0z"/>
        </clipPath>
    </defs>
    <path data-name="사각형 473013" style="fill:none" d="M0 0h24v24H0z"/>
    <g data-name="그룹 655427">
        <g data-name="그룹 655426" style="clip-path:url(#yj5cyh5via)" transform="translate(3.238 3.873)">
            <path data-name="패스 1519562" d="M27.866 50.767a.6.6 0 1 0 .6.6.6.6 0 0 0-.6-.6" transform="translate(-24.042 -44.77)" style="fill:#fff"/>
            <path data-name="패스 1519563" d="M77.971 50.234a.65.65 0 1 0 .65.65.65.65 0 0 0-.65-.65" transform="translate(-68.187 -44.3)" style="fill:#fff"/>
            <path data-name="패스 1519564" d="M15.179 0H2.344A2.344 2.344 0 0 0 0 2.344v7.617a2.344 2.344 0 0 0 2.344 2.344h4.533l1.542 3.632s.106.315.363.315.363-.315.363-.315l1.542-3.632h4.492a2.344 2.344 0 0 0 2.344-2.344V2.344A2.344 2.344 0 0 0 15.179 0M5.505 6.734a1.452 1.452 0 0 1-1.447 1.432 1.2 1.2 0 0 1-.871-.366v.251H2.139V3.724c.065.011 1.048 0 1.048 0v1.651c.247-.42.96-.413.96-.413a1.535 1.535 0 0 1 1.358 1.772m1.846-1.64v2.961H6.325V5.124c0-.4-.495-.509-.495-.509V3.581a1.419 1.419 0 0 1 1.521 1.513m2.433 3.074a1.656 1.656 0 0 1-1.72-1.584A1.656 1.656 0 0 1 9.784 5 1.656 1.656 0 0 1 11.5 6.584a1.656 1.656 0 0 1-1.72 1.584m5.622 0a1.464 1.464 0 0 1-1.514 1.5h-.465V8.7h.281s.642.059.635-.93c0 0-.126.4-1.026.4a1.353 1.353 0 0 1-1.274-1.34v-.473a1.459 1.459 0 0 1 1.432-1.4 1.045 1.045 0 0 1 .893.4v-.314h1.041z" style="fill:#fff"/>
            <path data-name="패스 1519565" d="M111.862 50.359a.635.635 0 1 0 .635.635.635.635 0 0 0-.635-.635" transform="translate(-98.088 -44.41)" style="fill:#fff"/>
        </g>
    </g>
</svg>
