<svg xmlns="http://www.w3.org/2000/svg" width="24" height="24" viewBox="0 0 24 24">
    <defs>
        <clipPath id="ielaz3aeea">
            <path data-name="사각형 472837" transform="rotate(180 9.5 9.5)" style="fill:#fff" d="M0 0h18v18H0z"/>
        </clipPath>
    </defs>
    <path data-name="사각형 472838" style="fill:none" d="M0 0h24v24H0z"/>
    <g data-name="Frame 1729" transform="translate(2 2)" style="clip-path:url(#ielaz3aeea)">
        <path data-name="패스 1519503" d="M6.2 1h7.609A5.2 5.2 0 0 1 19 6.195V13.8a5.2 5.2 0 0 1-5.195 5.2H6.2A5.2 5.2 0 0 1 1 13.8V6.195A5.193 5.193 0 0 1 6.2 1zM2.658 13.938a3.449 3.449 0 0 0 3.449 3.449h7.787a3.449 3.449 0 0 0 3.449-3.449V6.15a3.449 3.449 0 0 0-3.449-3.45H6.107a3.449 3.449 0 0 0-3.449 3.45z" style="fill:#fff"/>
        <path data-name="패스 1519504" d="M10 5.374a4.67 4.67 0 1 1-4.67 4.67A4.67 4.67 0 0 1 10 5.374zm0 7.7a3.027 3.027 0 1 0-3.027-3.027A3.027 3.027 0 0 0 10 13.072z" style="fill:#fff"/>
        <path data-name="패스 1519505" d="M5.173 6.285A1.088 1.088 0 1 1 6.262 5.2a1.088 1.088 0 0 1-1.089 1.085z" style="fill:#fff"/>
    </g>
</svg>
