<svg xmlns="http://www.w3.org/2000/svg" width="24" height="24" viewBox="0 0 24 24">
    <path data-name="사각형 472840" style="fill:none" d="M0 0h24v24H0z"/>
    <path d="M17.814 3.419a2.505 2.505 0 0 1 1.768 1.768A26.057 26.057 0 0 1 20 10a26.057 26.057 0 0 1-.417 4.814 2.505 2.505 0 0 1-1.768 1.768C16.253 17 10 17 10 17s-6.254 0-7.814-.417a2.5 2.5 0 0 1-1.769-1.769A26.058 26.058 0 0 1 0 10a26.051 26.051 0 0 1 .417-4.814 2.5 2.5 0 0 1 1.769-1.767C3.745 3 10 3 10 3s6.253 0 7.814.419zM13.2 10.257l-5.2 3v-6z" transform="translate(2 2)" style="fill:#fff;fill-rule:evenodd"/>
</svg>
