<svg xmlns="http://www.w3.org/2000/svg" width="36" height="36" viewBox="0 0 36 36">
    <path data-name="사각형 472817" style="fill:none" d="M0 0h36v36H0z"/>
    <path data-name="headset" d="M21 26.143a2.571 2.571 0 0 1-2.571-2.571v-5.143A2.571 2.571 0 0 1 21 15.857h2.571v-1.286a9 9 0 1 0-18 0v1.286h2.572a2.571 2.571 0 0 1 2.571 2.571v5.143a2.571 2.571 0 0 1-2.571 2.571H3V14.571a11.571 11.571 0 1 1 23.143 0v11.572zm2.571-7.714H21v5.143h2.571zm-15.429 0H5.571v5.143h2.572z" transform="translate(3.832 4.036)" style="fill-rule:evenodd"/>
</svg>
