<svg xmlns="http://www.w3.org/2000/svg" width="36" height="36" viewBox="0 0 36 36">
    <path data-name="사각형 472803" style="fill:none" d="M0 0h36v36H0z"/>
    <path data-name="패스 167" d="M14.364 13.121a3 3 0 0 1 .586 3.415l1.535 1.535a1 1 0 1 1-1.414 1.414l-1.535-1.535a3 3 0 1 1 .828-4.829zM12.95 15.95a1 1 0 1 0-1.414 0 1 1 0 0 0 1.414 0z" transform="translate(6.411 6.963)" style="fill-rule:evenodd"/>
    <path data-name="패스 168" d="M14.237 10.363h8v2h-8z"/>
    <path data-name="패스 169" d="M22.237 14.763h-8v2h8z"/>
    <path data-name="패스 170" d="M4 4.273A3.273 3.273 0 0 1 7.273 1h10.909a3.273 3.273 0 0 1 3.273 3.273v17.454A3.273 3.273 0 0 1 18.182 25H7.273A3.273 3.273 0 0 1 4 21.727zm3.273-1.091h10.909a1.091 1.091 0 0 1 1.091 1.091v17.454a1.091 1.091 0 0 1-1.091 1.091H7.273a1.091 1.091 0 0 1-1.091-1.091V4.273a1.091 1.091 0 0 1 1.091-1.091z" transform="translate(5.51 4.963)" style="fill-rule:evenodd"/>
</svg>
