<svg xmlns="http://www.w3.org/2000/svg" width="36" height="36" viewBox="0 0 36 36">
    <path data-name="사각형 472803" style="fill:none" d="M0 0h36v36H0z"/>
    <path data-name="screen" d="M11.909 18.273H4.273A3.273 3.273 0 0 1 1 15V6.273A3.273 3.273 0 0 1 4.273 3h17.454A3.273 3.273 0 0 1 25 6.273V15a3.273 3.273 0 0 1-3.273 3.273h-7.636v2.182h3.273a1.091 1.091 0 1 1 0 2.182H8.636a1.091 1.091 0 1 1 0-2.182h3.273zM4.273 5.182h17.454a1.091 1.091 0 0 1 1.091 1.091V15a1.091 1.091 0 0 1-1.091 1.091H4.273A1.091 1.091 0 0 1 3.182 15V6.273a1.091 1.091 0 0 1 1.091-1.091z" transform="translate(5.137 5.324)" style="fill-rule:evenodd"/>
</svg>
