<svg id="icon_calculator" xmlns="http://www.w3.org/2000/svg" width="36" height="36" viewBox="0 0 36 36">
  <rect id="사각형_472801" data-name="사각형 472801" width="36" height="36" fill="none"/>
  <g id="calculator" transform="translate(6.529 3.81)">
    <path id="패스_180" data-name="패스 180" d="M19.857,5H7V7.571H19.857Z" transform="translate(-1.857 0.143)"/>
    <path id="패스_181" data-name="패스 181" d="M7,9H9.571v2.571H7Z" transform="translate(-1.857 1.286)"/>
    <path id="패스_182" data-name="패스 182" d="M9.571,13H7v2.571H9.571Z" transform="translate(-1.857 2.429)"/>
    <path id="패스_183" data-name="패스 183" d="M7,17H9.571v2.571H7Z" transform="translate(-1.857 3.571)"/>
    <path id="패스_184" data-name="패스 184" d="M13.571,9H11v2.571h2.571Z" transform="translate(-0.714 1.286)"/>
    <path id="패스_185" data-name="패스 185" d="M11,13h2.571v2.571H11Z" transform="translate(-0.714 2.429)"/>
    <path id="패스_186" data-name="패스 186" d="M13.571,17H11v2.571h2.571Z" transform="translate(-0.714 3.571)"/>
    <path id="패스_187" data-name="패스 187" d="M15,9h2.571v2.571H15Z" transform="translate(0.429 1.286)"/>
    <path id="패스_188" data-name="패스 188" d="M17.571,13H15v7.714h2.571Z" transform="translate(0.429 2.429)"/>
    <path id="패스_189" data-name="패스 189" d="M3,3.571A2.571,2.571,0,0,1,5.571,1h18a2.571,2.571,0,0,1,2.571,2.571V26.714a2.571,2.571,0,0,1-2.571,2.571h-18A2.571,2.571,0,0,1,3,26.714Zm2.571,0h18V26.714h-18Z" transform="translate(-3 -1)" fill-rule="evenodd"/>
  </g>
</svg>
