<svg xmlns="http://www.w3.org/2000/svg" width="158" height="40" viewBox="0 0 158 40">
    <defs>
        <clipPath id="yfdnaxkqna">
            <path data-name="사각형 2" style="fill:#443e30" d="M0 0h157.415v33.889H0z"/>
        </clipPath>
    </defs>
    <path data-name="사각형 472835" style="fill:none" d="M0 0h158v40H0z"/>
    <g data-name="그룹 1" style="clip-path:url(#yfdnaxkqna)" transform="translate(0 2.556)">
        <path data-name="패스 1" d="m15.139 31.278.631 1.741a.675.675 0 0 0 .218.33 3.8 3.8 0 0 0 2 .529l.167-.019.106-.235a4.577 4.577 0 0 0 .077-.886c0-.354-.026-.743-.058-1.219l-.045-.7c-.211-3.232-.424-7.9-.424-11.007v-.246l2.953 1.859c4.088 2.653 10.265 6.661 14 7.72a.548.548 0 0 0 .541-.124c.006-.006.576-.368.576-.368l.106-.044a1.034 1.034 0 0 0 .385-.855c3.145-.159 7.535-1.37 9.882-4.322a6.146 6.146 0 0 0 1.319-3.746 3.179 3.179 0 0 0-.768-2.3l-.447-.384a7.712 7.712 0 0 0-5.934-1.733 11.231 11.231 0 0 0-5.217 1.8 20.353 20.353 0 0 1 .153-2.194 21.138 21.138 0 0 0 .155-2.173 5.07 5.07 0 0 0-.328-1.975.383.383 0 0 0-.372-.239 5.712 5.712 0 0 0-2.408.788l-.181.4a16.082 16.082 0 0 1-.354 3.213 8.93 8.93 0 0 1-.095.264 39.217 39.217 0 0 0-.026 8.173c.03.234.481.587.829.714a5.278 5.278 0 0 0 2.264-.44c-.007 0 .261-.039.261-.039a.393.393 0 0 0 .334-.456l.015-.674c.5-2.022 2.514-4.433 4.894-4.8a3.383 3.383 0 0 1 3.249 1.048 4.45 4.45 0 0 1-.529 3.29 6.819 6.819 0 0 1-3.722 2.931 14.257 14.257 0 0 1-5.691.8l-2.093-1.414a30.173 30.173 0 0 0-5.97-3.551 7.2 7.2 0 0 1-1.355-.968l-.206-.17c-1.152-.923-3.342-2.383-5.1-3.556l-.949-.634c0-.067.006-.2.006-.2.049-.056 1.154-.719 1.154-.719 1.548-.906 6.459-3.871 6.459-3.871C29.076 8.7 32.993 6.55 35.264 4.4a1.767 1.767 0 0 0 .5-.886l.034-.147a2.155 2.155 0 0 0 .033-1.288.415.415 0 0 0-.3-.294c-1.71-.168-3.919.858-5.927 2.741a5.33 5.33 0 0 1-1.237.854l-.307.17c-2.216 1.259-7.207 4.357-9.818 6.028a88 88 0 0 1 1.33-10.136l-.071-.4-.27-.5-.2-.362-.06-.013a1.641 1.641 0 0 0-1.258-.076l-.524.192-.689.252a.381.381 0 0 0-.3.246 42.348 42.348 0 0 0-2.532 11.943c-2.557-1.5-4.752-2.62-4.752-2.62C8.488 9.9 6.675 9.048 6.2 8.759c-.048-.029-.946-.614-.946-.614L3.8 7.217a8.96 8.96 0 0 1-.38-.087 4.508 4.508 0 0 0-2.172 1.457.407.407 0 0 0-.066.233 1.3 1.3 0 0 0 .066.342l.064.3.068.177a20.709 20.709 0 0 0 4.165 2.823l1.992 1.055 2.86 1.67c0 .014.71.408.71.408l.359.208.062.04-5.542 3.7-2.919 1.931a16.493 16.493 0 0 1-1.679.805 2.4 2.4 0 0 0-1.311 1.084L0 23.529l.078.112.221.169c-.008 0 .3.2.3.2l.321.221.3.045a7.705 7.705 0 0 0 2.692-.892c1.3-.578 4.844-2.713 6.358-3.625l.647-.389c.332-.163.516-.264.825-.439.339-.191.964-.61 1.366-.787l.455-.252v.174a62.039 62.039 0 0 0 .84 10.591s.361 1.55.734 2.626" style="fill:#fca400"/>
        <path data-name="패스 2" d="M1155.752 171.564V163.3h2.9v5.764h16.346v2.5z" transform="translate(-1017.58 -143.776)" style="fill:#443e30"/>
        <path data-name="패스 3" d="M1255.336 38.1v12.41h-4.658v2.4h4.658v2.228h2.882V38.1z" transform="translate(-1101.157 -33.544)" style="fill:#443e30"/>
        <path data-name="패스 4" d="M1140.809 57.7v-5.332h-7.278v-2.5h11.957v-5.576h-10.508V41.8h13.412v8.05h2.3v2.518h-7V57.7z" transform="translate(-998.015 -36.807)" style="fill:#443e30"/>
        <path data-name="사각형 1" transform="translate(109.956 14.735)" style="fill:#443e30" d="M0 0h23.634v2.497H0z"/>
        <path data-name="패스 5" d="M949.725 161.213c-3.637 0-6.577-.876-6.577-2.837 0-1.945 2.94-2.832 6.577-2.832s6.573.887 6.573 2.832c0 1.961-2.947 2.837-6.573 2.837m.01-8.166c-5.3 0-9.6 1.755-9.6 5.324 0 3.544 4.3 5.329 9.6 5.329s9.6-1.784 9.6-5.329c0-3.569-4.3-5.324-9.6-5.324" transform="translate(-827.738 -134.75)" style="fill:#443e30"/>
        <path data-name="패스 6" d="M955.683 47.609c-.558-.043-6.563-.442-8.052-3.715h7.455v-2.483h-18.848v2.482h7.454c-1.492 3.273-7.5 3.672-8.053 3.715V50c2.985-.173 7.5-1.041 10.021-3.369 2.525 2.327 7.037 3.2 10.022 3.369z" transform="translate(-823.781 -36.46)" style="fill:#443e30"/>
        <path data-name="패스 7" d="M488.631 39.685h3.678V50l12.383-10.315h5.208l-13.084 10.409 14.172 12.636h-5.2l-13.479-12.348V62.73h-3.678z" transform="translate(-430.214 -34.941)" style="fill:#443e30"/>
        <path data-name="패스 8" d="M711.61 50.7v-.1a5.266 5.266 0 0 0 4.526-5.211c0-3.912-2.817-5.7-8.2-5.7h-11.321v23.04H708.3c6.254 0 8.773-2.978 8.773-6.416 0-2.739-1.752-5.175-5.458-5.616m-11.325-8.389h7.046c4.237 0 5.247 1.432 5.247 3.57 0 2.458-2.05 3.513-4.823 3.513h-7.469zm7.238 17.8h-7.238v-8.1h7.046c4.05 0 5.882 1.466 5.882 4.116 0 2.229-1.193 3.989-5.689 3.989" transform="translate(-613.333 -34.941)" style="fill:#443e30"/>
    </g>
</svg>
