<?xml version="1.0" encoding="UTF-8"?>
<svg id="_레이어_1" data-name="레이어 1" xmlns="http://www.w3.org/2000/svg" version="1.1" viewBox="0 0 38 38">
  <defs>
    <style>
      .cls-1 {
        fill: #fff;
        fill-rule: evenodd;
      }

      .cls-1, .cls-2 {
        stroke-width: 0px;
      }

      .cls-2 {
        fill: none;
      }
    </style>
  </defs>
  <rect class="cls-2" width="38" height="38"/>
  <path class="cls-1" d="M21.3,19L3.7,1.5c-.2.5-.3,1-.3,1.5v32.1c0,.5.1,1.1.3,1.5l17.6-17.6ZM3.8,1.4h0s0,0,0,0M22.3,18l5.4-5.4L7.1.9c-.5-.3-1.1-.5-1.6-.5-.2,0-.5,0-.7.1l17.5,17.5ZM35.4,16.9l-6.3-3.6-5.7,5.7,5.7,5.7,6.3-3.6c2-1.2,2-3,0-4.2M22.3,20L4.8,37.5c.8.2,1.6,0,2.3-.4l20.6-11.7-5.4-5.4ZM3.8,36.6c0,.1.2.3.3.4-.1-.1-.2-.3-.3-.4"/>
</svg>